<svg height="512" viewBox="0 0 512 512" width="512" xmlns="http://www.w3.org/2000/svg"><g id="flat"><path d="m130 168h124a18 18 0 0 1 18 18v302a0 0 0 0 1 0 0h-160a0 0 0 0 1 0 0v-302a18 18 0 0 1 18-18z" fill="#3bd6d0"/><path d="m208 288h64v128h-64z" fill="#37c9c3"/><path d="m272 464h-72a8 8 0 0 1 0-16h72a8 8 0 0 1 0 16z" fill="#45ecdc"/><path d="m168 464h-56a8 8 0 0 1 0-16h56a8 8 0 0 1 0 16z" fill="#45ecdc"/><path d="m424.865 104.865-19.395-19.395 16.749-22.333a17.842 17.842 0 0 1 26.889-1.911 17.841 17.841 0 0 1 -1.908 26.889z" fill="#ea9d2d"/><path d="m424.865 85.47-19.395 19.395-22.333-16.75a17.842 17.842 0 0 1 -1.911-26.889 17.842 17.842 0 0 1 26.889 1.911z" fill="#ea9d2d"/><path d="m405.47 85.47 19.395 19.395-16.75 22.335a17.841 17.841 0 0 1 -26.889 1.911 17.842 17.842 0 0 1 1.911-26.889z" fill="#ea9d2d"/><path d="m405.47 104.865 19.395-19.395 22.335 16.749a17.841 17.841 0 0 1 1.911 26.889 17.841 17.841 0 0 1 -26.889-1.911z" fill="#ea9d2d"/><path d="m160 120h64v48h-64z" fill="#d9d9d9"/><path d="m256 24h-58a30 30 0 0 0 -30 30v18h48v-16h72a32 32 0 0 0 -32-32z" fill="#d9d9d9"/><path d="m176 72h32v48h-32z" fill="#b9b9b9"/><path d="m144 408h-96l-24-176h144z" fill="#fd9226"/><g fill="#fbb540"><circle cx="96" cy="313.812" r="21.346"/><path d="m96 285.888a8 8 0 0 1 -8-8v-10.264a8 8 0 0 1 16 0v10.264a8 8 0 0 1 -8 8z"/><path d="m64.881 303.851a7.952 7.952 0 0 1 -3.992-1.074l-8.889-5.131a8 8 0 1 1 8-13.856l8.889 5.132a8 8 0 0 1 -4.008 14.929z"/><path d="m56.008 344.907a8 8 0 0 1 -4.008-14.928l8.889-5.132a8 8 0 1 1 8 13.855l-8.889 5.132a7.958 7.958 0 0 1 -3.992 1.073z"/><path d="m96 368a8 8 0 0 1 -8-8v-10.264a8 8 0 0 1 16 0v10.264a8 8 0 0 1 -8 8z"/><path d="m135.992 344.907a7.956 7.956 0 0 1 -3.992-1.073l-8.889-5.132a8 8 0 1 1 8-13.855l8.889 5.132a8 8 0 0 1 -4.008 14.928z"/><path d="m127.119 303.851a8 8 0 0 1 -4.008-14.929l8.889-5.132a8 8 0 1 1 8 13.856l-8.889 5.131a7.954 7.954 0 0 1 -3.992 1.074z"/></g><path d="m48 440h96v48h-96z" fill="#428dc5"/><path d="m80 440h32a0 0 0 0 1 0 0v16a8 8 0 0 1 -8 8h-16a8 8 0 0 1 -8-8v-16a0 0 0 0 1 0 0z" fill="#36759e"/><path d="m48 408h96v32h-96z" fill="#4799cf"/><path d="m24 200h144v32h-144z" fill="#e08122"/><path d="m424 296h8a86.372 86.372 0 0 0 4.686-65.941l-4.686-14.059-19.84 9.92a133.373 133.373 0 0 1 -59.644 14.08h-6.729a41.786 41.786 0 0 0 -41.787 41.787v14.213h3.056a43.056 43.056 0 0 0 -43.056 43.056v20.944h160a32 32 0 0 0 32-32 32 32 0 0 0 -32-32z" fill="#fbd699"/><path d="m352 304h-48a8 8 0 0 1 0-16h48a8 8 0 0 1 0 16z" fill="#f7ba61"/><path d="m432 304h-32a8 8 0 0 1 0-16h32a8 8 0 0 1 0 16z" fill="#f7ba61"/><path d="m384 488h-48a96 96 0 0 1 -96-96v-16h240v16a96 96 0 0 1 -96 96z" fill="#ffb1b5"/><path d="m248 344h224v32h-224z" fill="#eea5a9"/><path d="m248 360h224v16h-224z" fill="#e6a0a3"/><circle cx="415.167" cy="95.167" fill="#d18d28" r="13.714"/><path d="m272 221.714v-27.428l27.635-3.948a17.841 17.841 0 0 1 20.365 17.662 17.841 17.841 0 0 1 -20.365 17.662z" fill="#ffb1b5"/><path d="m285.714 208h-27.428l-3.948-27.635a17.841 17.841 0 0 1 17.662-20.365 17.841 17.841 0 0 1 17.662 20.365z" fill="#ffb1b5"/><path d="m272 194.286v27.428l-27.635 3.948a17.841 17.841 0 0 1 -20.365-17.662 17.841 17.841 0 0 1 20.365-17.662z" fill="#ffb1b5"/><path d="m258.286 208h27.428l3.948 27.635a17.841 17.841 0 0 1 -17.662 20.365 17.841 17.841 0 0 1 -17.662-20.365z" fill="#ffb1b5"/><circle cx="272" cy="208" fill="#de9a9e" r="13.714"/><path d="m176 72h32v16h-32z" fill="#a8a8a8"/></g></svg>